<?xml version="1.0" encoding="utf-8"?>
<!-- Generator: Adobe Illustrator 22.1.0, SVG Export Plug-In . SVG Version: 6.00 Build 0)  -->
<svg version="1.1" id="Filled_Old_Icons" xmlns="http://www.w3.org/2000/svg" xmlns:xlink="http://www.w3.org/1999/xlink" x="0px"
	 y="0px" viewBox="0 0 42.5 42.5" style="enable-background:new 0 0 42.5 42.5;" xml:space="preserve">
<g>
	<g>
		<path d="M36.3,41.6H25.7c-0.5,0-0.9-0.4-0.9-0.9V25.7h-7.1v15.1c0,0.5-0.4,0.9-0.9,0.9H6.2c-0.5,0-0.9-0.4-0.9-0.9V23
			c0-0.5,0.4-0.9,0.9-0.9s0.9,0.4,0.9,0.9v16.8h8.9V24.8c0-0.5,0.4-0.9,0.9-0.9h8.9c0.5,0,0.9,0.4,0.9,0.9v15.1h8.9V23.9
			c0-0.5,0.4-0.9,0.9-0.9c0.5,0,0.9,0.4,0.9,0.9v16.8C37.2,41.2,36.8,41.6,36.3,41.6z"/>
	</g>
	<g>
		<path d="M41.6,23c-0.2,0-0.5-0.1-0.6-0.3L21.3,3L1.5,22.8c-0.3,0.3-0.9,0.3-1.3,0c-0.3-0.3-0.3-0.9,0-1.3L20.6,1.1
			c0.3-0.3,0.9-0.3,1.3,0l20.4,20.4c0.3,0.3,0.3,0.9,0,1.3C42.1,22.9,41.8,23,41.6,23z"/>
	</g>
	<g>
		<path d="M34.5,10.6c-0.5,0-0.9-0.4-0.9-0.9V4.4h-5.3c-0.5,0-0.9-0.4-0.9-0.9s0.4-0.9,0.9-0.9h6.2c0.5,0,0.9,0.4,0.9,0.9v6.2
			C35.4,10.2,35,10.6,34.5,10.6z"/>
	</g>
</g>
</svg>
