<?xml version="1.0" encoding="utf-8"?>
<!-- Generator: Adobe Illustrator 22.1.0, SVG Export Plug-In . SVG Version: 6.00 Build 0)  -->
<svg version="1.1" id="Filled_Old_Icons" xmlns="http://www.w3.org/2000/svg" xmlns:xlink="http://www.w3.org/1999/xlink" x="0px"
	 y="0px" viewBox="0 0 42.5 42.5" style="enable-background:new 0 0 42.5 42.5;" xml:space="preserve">
<style type="text/css">
	.st0{fill:#202126;}
</style>
<g>
	<circle class="st0" cx="10.6" cy="35.4" r="3.5"/>
	<circle class="st0" cx="30.1" cy="35.4" r="3.5"/>
	<path class="st0" d="M41.6,3.6H37c-0.9,0-1.7,0.7-1.7,1.6l-0.7,4.7c0,0.4-0.4,0.8-0.9,0.8H3.6c-1.2,0-2.2,0.5-2.9,1.4
		c-0.7,0.9-0.9,2.1-0.5,3.1L3,24c0.5,1.4,1.8,2.5,3.4,2.5h25.5c0.5,0,0.9,0.4,0.9,0.9c0,0.5-0.4,0.9-0.9,0.9H7.1
		c-0.5,0-0.9,0.4-0.9,0.9c0,0.5,0.4,0.8,0.9,0.8h24.7c1.4,0,2.6-1.2,2.6-2.5l0,0l0,0l0,0l0,0l0,0l2-17.4L37,5.3h4.6
		c0.5,0,0.9-0.4,0.9-0.9C42.5,4,42.1,3.6,41.6,3.6z"/>
</g>
</svg>
