<?xml version="1.0" encoding="utf-8"?>
<!-- Generator: Adobe Illustrator 22.1.0, SVG Export Plug-In . SVG Version: 6.00 Build 0)  -->
<svg version="1.1" id="Filled_Old_Icons" xmlns="http://www.w3.org/2000/svg" xmlns:xlink="http://www.w3.org/1999/xlink" x="0px"
	 y="0px" viewBox="0 0 42.5 42.5" style="enable-background:new 0 0 42.5 42.5;" xml:space="preserve">
<style type="text/css">
	.st0{fill:#202126;}
</style>
<g>
	<path class="st0" d="M21.2,0C9.5,0,0,9.5,0,21.2s9.5,21.3,21.2,21.3c11.7,0,21.2-9.5,21.2-21.3S33,0,21.2,0z M32.4,32.3
		c-0.3,0.3-0.6,0.4-1,0.4c-0.3,0-0.6-0.1-0.9-0.3L19,21.8V11.1c0-0.7,0.6-1.3,1.3-1.3s1.3,0.6,1.3,1.3v9.6l10.7,9.8
		C32.8,30.9,32.8,31.8,32.4,32.3z"/>
</g>
</svg>
