<?xml version="1.0" encoding="utf-8"?>
<!-- Generator: Adobe Illustrator 22.1.0, SVG Export Plug-In . SVG Version: 6.00 Build 0)  -->
<svg version="1.1" id="Filled_Old_Icons" xmlns="http://www.w3.org/2000/svg" xmlns:xlink="http://www.w3.org/1999/xlink" x="0px"
	 y="0px" viewBox="0 0 42.5 42.5" style="enable-background:new 0 0 42.5 42.5;" xml:space="preserve">
<style type="text/css">
	.st0{fill:#202126;}
</style>
<g>
</g>
<g>
	<g>
		<path class="st0" d="M21.2,42.5C9.5,42.5,0,33,0,21.2C0,9.5,9.5,0,21.2,0C33,0,42.5,9.5,42.5,21.2C42.5,33,33,42.5,21.2,42.5z
			 M21.2,2.2c-10.5,0-19,8.5-19,19c0,10.5,8.5,19,19,19c10.5,0,19-8.5,19-19C40.3,10.8,31.7,2.2,21.2,2.2z"/>
	</g>
	<path class="st0" d="M32.4,32.3c-0.3,0.3-0.6,0.4-1,0.4c-0.3,0-0.6-0.1-0.9-0.3L19,21.8V11.1c0-0.7,0.6-1.3,1.3-1.3
		s1.3,0.6,1.3,1.3v9.6l10.7,9.8C32.8,30.9,32.8,31.8,32.4,32.3z"/>
</g>
</svg>
