<?xml version="1.0" encoding="utf-8"?>
<!-- Generator: Adobe Illustrator 22.1.0, SVG Export Plug-In . SVG Version: 6.00 Build 0)  -->
<svg version="1.1" id="Filled_Old_Icons" xmlns="http://www.w3.org/2000/svg" xmlns:xlink="http://www.w3.org/1999/xlink" x="0px"
	 y="0px" viewBox="0 0 42.5 42.5" style="enable-background:new 0 0 42.5 42.5;" xml:space="preserve">
<g>
	<path d="M42,16.4c0.3,0,0.5-0.2,0.5-0.5V7.7c0-0.3-0.2-0.5-0.5-0.5H0.5C0.2,7.2,0,7.4,0,7.7v8.1c0,0.3,0.3,0.5,0.6,0.5
		c1.3-0.1,2.6,0.2,3.4,1.2c3.3,4.1,0.4,8.6-3.5,8.6c-0.3,0-0.5,0.2-0.5,0.5v8.1c0,0.3,0.2,0.5,0.5,0.5H42c0.3,0,0.5-0.2,0.5-0.5
		v-8.1c0-0.3-0.3-0.5-0.6-0.5c-1.3,0.1-2.6-0.2-3.4-1.2C35.3,20.9,38.1,16.4,42,16.4z M36.1,21.3c0,3.1,2.4,5.6,5.4,5.9v7.1H1v-7.1
		c3-0.3,5.4-2.8,5.4-5.9c0-3.1-2.4-5.6-5.4-5.9V8.2h40.4v7.1C38.4,15.6,36.1,18.2,36.1,21.3z"/>
	<path d="M33.5,14h-1.1c-0.2,0-0.4,0.2-0.4,0.4v1.1c0,0.2,0.2,0.4,0.4,0.4h1.1c0.2,0,0.4-0.2,0.4-0.4v-1.1
		C33.9,14.2,33.7,14,33.5,14z"/>
	<path d="M33.5,17.6h-1.1c-0.2,0-0.4,0.2-0.4,0.4v1.1c0,0.2,0.2,0.4,0.4,0.4h1.1c0.2,0,0.4-0.2,0.4-0.4V18
		C33.9,17.8,33.7,17.6,33.5,17.6z"/>
	<path d="M33.5,23.1h-1.1c-0.2,0-0.4,0.2-0.4,0.4v1.1c0,0.2,0.2,0.4,0.4,0.4h1.1c0.2,0,0.4-0.2,0.4-0.4v-1.1
		C33.9,23.2,33.7,23.1,33.5,23.1z"/>
	<path d="M33.5,26.7h-1.1c-0.2,0-0.4,0.2-0.4,0.4v1.1c0,0.2,0.2,0.4,0.4,0.4h1.1c0.2,0,0.4-0.2,0.4-0.4V27
		C33.9,26.8,33.7,26.7,33.5,26.7z"/>
	<path d="M33.5,30.3h-1.1c-0.2,0-0.4,0.2-0.4,0.4v1.1c0,0.2,0.2,0.4,0.4,0.4h1.1c0.2,0,0.4-0.2,0.4-0.4v-1.1
		C33.9,30.4,33.7,30.3,33.5,30.3z"/>
	<path d="M33.5,10.4h-1.1c-0.2,0-0.4,0.2-0.4,0.4v1.1c0,0.2,0.2,0.4,0.4,0.4h1.1c0.2,0,0.4-0.2,0.4-0.4v-1.1
		C33.9,10.6,33.7,10.4,33.5,10.4z"/>
	<path d="M26.3,13.7L11.9,28.1c-0.2,0.2-0.2,0.5,0,0.7c0.1,0.1,0.2,0.2,0.4,0.2c0.1,0,0.3-0.1,0.4-0.2L27,14.4
		c0.2-0.2,0.2-0.5,0-0.7C26.8,13.5,26.5,13.5,26.3,13.7z"/>
	<path d="M16.7,19c1.3-0.2,2.3-1.3,2.5-2.5c0.4-2.3-1.5-4.2-3.8-3.8c-1.3,0.2-2.3,1.3-2.5,2.5C12.4,17.5,14.4,19.4,16.7,19z
		 M16.6,13.7c0.8,0.2,1.4,0.8,1.6,1.6c0.4,1.6-1,3.1-2.7,2.7c-0.8-0.2-1.4-0.8-1.6-1.6C13.5,14.8,15,13.3,16.6,13.7z"/>
	<path d="M22.2,23.5c-1.3,0.2-2.3,1.3-2.5,2.5c-0.4,2.3,1.5,4.2,3.8,3.8c1.3-0.2,2.3-1.3,2.5-2.5C26.4,25,24.5,23.1,22.2,23.5z
		 M22.3,28.8c-0.8-0.2-1.4-0.8-1.6-1.6c-0.4-1.6,1-3.1,2.7-2.7c0.8,0.2,1.4,0.8,1.6,1.6C25.4,27.7,23.9,29.2,22.3,28.8z"/>
</g>
</svg>
