<?xml version="1.0" encoding="utf-8"?>
<!-- Generator: Adobe Illustrator 22.1.0, SVG Export Plug-In . SVG Version: 6.00 Build 0)  -->
<svg version="1.1" id="Filled_Old_Icons" xmlns="http://www.w3.org/2000/svg" xmlns:xlink="http://www.w3.org/1999/xlink" x="0px"
	 y="0px" viewBox="0 0 42.5 42.5" style="enable-background:new 0 0 42.5 42.5;" xml:space="preserve">
<style type="text/css">
	.st0{fill:#202126;}
</style>
<g>
	<g>
		<path class="st0" d="M11.2,10C5,10,0,15.1,0,21.2s5,11.2,11.2,11.2c6.2,0,11.2-5,11.2-11.2S17.4,10,11.2,10z M17.1,27.1
			c-0.1,0.1-0.3,0.2-0.5,0.2c-0.2,0-0.3-0.1-0.5-0.2L10,21.5v-5.7c0-0.4,0.3-0.7,0.7-0.7s0.7,0.3,0.7,0.7V21l5.6,5.2
			C17.3,26.4,17.3,26.8,17.1,27.1z"/>
	</g>
	<g>
		<path class="st0" d="M36.2,17.5H27c-0.5,0-1-0.4-1-1s0.4-1,1-1h9.1c0.5,0,1,0.4,1,1S36.7,17.5,36.2,17.5z"/>
	</g>
	<g>
		<path class="st0" d="M35.9,26.9H27c-0.5,0-1-0.4-1-1s0.4-1,1-1h8.9c0.5,0,1,0.4,1,1S36.5,26.9,35.9,26.9z"/>
	</g>
	<g>
		<path class="st0" d="M41.5,22.2H28.4c-0.5,0-1-0.4-1-1s0.4-1,1-1h13.1c0.5,0,1,0.4,1,1S42.1,22.2,41.5,22.2z"/>
	</g>
</g>
</svg>
