<?xml version="1.0" encoding="utf-8"?>
<!-- Generator: Adobe Illustrator 22.1.0, SVG Export Plug-In . SVG Version: 6.00 Build 0)  -->
<svg version="1.1" id="Filled_Old_Icons" xmlns="http://www.w3.org/2000/svg" xmlns:xlink="http://www.w3.org/1999/xlink" x="0px"
	 y="0px" viewBox="0 0 42.5 42.5" style="enable-background:new 0 0 42.5 42.5;" xml:space="preserve">
<style type="text/css">
	.st0{fill:#202126;}
</style>
<g>
	<path class="st0" d="M34,15.9c-1.7,2.1-4.3,3.4-6.9,3.4c-2.1,0-5.2-0.7-6.8-2.2c-1.6,1.5-2.7,2.2-4.8,2.2c-2.6,0-5.2-1.4-6.9-3.4
		c-1,0.7-2.2,1.5-3.7,1.5c-1,0-2-0.2-3-0.6v22.9c0,0.5,0.5,1,1,1h23.2h9.6h3.8c0.5,0,1-0.5,1-1V16.7c-0.9,0.4-1.8,0.6-3,0.6
		C36.1,17.4,34.9,16.7,34,15.9z M21.3,38.7H7.8V23.1h13.6V38.7z M34.7,38.7h-7.6V23.1h7.8v15.5H34.7z"/>
	<path class="st0" d="M34.7,9.7v4.4c1,1,2,1.4,3,1.4c2.7,0,4.8-2.2,4.8-4.8v-1C42.5,9.7,34.7,9.7,34.7,9.7z"/>
	<polygon class="st0" points="41.9,7.7 39.1,2 32.8,2 34.5,7.7 	"/>
	<polygon class="st0" points="9.2,2 3.6,2 0.6,7.7 7.9,7.7 	"/>
	<polygon class="st0" points="19.3,2 11.2,2 9.9,7.7 19.3,7.7 	"/>
	<polygon class="st0" points="30.8,2 21.3,2 21.3,7.7 32.5,7.7 	"/>
	<path class="st0" d="M7.8,14V9.6H0v1c0,2.7,2.2,4.8,4.8,4.8C5.8,15.5,6.7,15,7.8,14z"/>
	<path class="st0" d="M32.9,14.2V9.6H21.3v5.7c1.2,1.4,3.9,2.1,5.8,2.1C29.2,17.4,31.5,16.1,32.9,14.2z"/>
	<path class="st0" d="M15.5,17.4c1.8,0,2.6-0.7,3.8-2.1V9.6H9.7v4.6C11,16.1,13.3,17.4,15.5,17.4z"/>
	<circle class="st0" cx="31.9" cy="31.9" r="1"/>
</g>
</svg>
