<?xml version="1.0" encoding="utf-8"?>
<!-- Generator: Adobe Illustrator 22.1.0, SVG Export Plug-In . SVG Version: 6.00 Build 0)  -->
<svg version="1.1" id="Filled_Old_Icons" xmlns="http://www.w3.org/2000/svg" xmlns:xlink="http://www.w3.org/1999/xlink" x="0px"
	 y="0px" viewBox="0 0 42.5 42.5" style="enable-background:new 0 0 42.5 42.5;" xml:space="preserve">
<g>
	<g>
		<path d="M18.5,19.1h-18c-0.3,0-0.5-0.2-0.5-0.5v-18C0,0.2,0.2,0,0.5,0h18c0.3,0,0.5,0.2,0.5,0.5v18C19.1,18.9,18.9,19.1,18.5,19.1
			z M1.1,18H18V1.1H1.1V18z"/>
	</g>
	<g>
		<path d="M42,19.1H24c-0.3,0-0.5-0.2-0.5-0.5v-18C23.4,0.2,23.6,0,24,0h18c0.3,0,0.5,0.2,0.5,0.5v18C42.5,18.9,42.3,19.1,42,19.1z
			 M24.5,18h16.9V1.1H24.5V18z"/>
	</g>
	<g>
		<path d="M18.5,42.5h-18C0.2,42.5,0,42.3,0,42V24c0-0.3,0.2-0.5,0.5-0.5h18c0.3,0,0.5,0.2,0.5,0.5v18
			C19.1,42.3,18.9,42.5,18.5,42.5z M1.1,41.4H18V24.5H1.1V41.4z"/>
	</g>
	<g>
		<path d="M42,42.5H24c-0.3,0-0.5-0.2-0.5-0.5V24c0-0.3,0.2-0.5,0.5-0.5h18c0.3,0,0.5,0.2,0.5,0.5v18C42.5,42.3,42.3,42.5,42,42.5z
			 M24.5,41.4h16.9V24.5H24.5V41.4z"/>
	</g>
</g>
</svg>
