<?xml version="1.0" encoding="utf-8"?>
<!-- Generator: Adobe Illustrator 22.1.0, SVG Export Plug-In . SVG Version: 6.00 Build 0)  -->
<svg version="1.1" id="Filled_Old_Icons" xmlns="http://www.w3.org/2000/svg" xmlns:xlink="http://www.w3.org/1999/xlink" x="0px"
	 y="0px" viewBox="0 0 42.5 42.5" style="enable-background:new 0 0 42.5 42.5;" xml:space="preserve">
<g>
	<path d="M2.5,12.1H40c1.4,0,2.5-1.4,2.5-3.1C42.5,7.4,41.4,6,40,6H2.5C1.1,6,0,7.4,0,9C0,10.7,1.1,12.1,2.5,12.1z"/>
	<path d="M40,18.2H2.5c-1.4,0-2.5,1.4-2.5,3.1c0,1.7,1.1,3.1,2.5,3.1H40c1.4,0,2.5-1.4,2.5-3.1C42.5,19.6,41.4,18.2,40,18.2z"/>
	<path d="M40,30.4H2.5c-1.4,0-2.5,1.4-2.5,3.1c0,1.7,1.1,3.1,2.5,3.1H40c1.4,0,2.5-1.4,2.5-3.1C42.5,31.8,41.4,30.4,40,30.4z"/>
</g>
</svg>
