<?xml version="1.0" encoding="utf-8"?>
<!-- Generator: Adobe Illustrator 22.1.0, SVG Export Plug-In . SVG Version: 6.00 Build 0)  -->
<svg version="1.1" id="Filled_Old_Icons" xmlns="http://www.w3.org/2000/svg" xmlns:xlink="http://www.w3.org/1999/xlink" x="0px"
	 y="0px" viewBox="0 0 42.5 42.5" style="enable-background:new 0 0 42.5 42.5;" xml:space="preserve">
<g>
	<path d="M36.1,3.4c0,0,0.3,0.3,0.8,0.9c0.1,0.1,0.3,0.3,0.4,0.5c0.2,0.2,0.4,0.5,0.6,0.8c0.4,0.6,1,1.3,1.4,2
		c0.2,0.4,0.4,0.8,0.7,1.2c0.2,0.4,0.4,0.9,0.6,1.4c0.1,0.2,0.2,0.5,0.3,0.7c0.1,0.3,0.2,0.5,0.3,0.8c0.2,0.5,0.4,1.1,0.5,1.7
		c0.6,2.3,0.9,5,0.7,7.9c0,0.3-0.1,0.6-0.1,0.9c-0.1,0.4-0.1,0.8-0.2,1.2c-0.1,0.4-0.2,0.8-0.2,1.2c-0.1,0.4-0.2,0.7-0.3,1.1
		c-0.1,0.4-0.2,0.8-0.3,1.1c-0.1,0.4-0.3,0.7-0.4,1.1c-0.3,0.8-0.7,1.5-1.1,2.2l-0.3,0.5l-0.3,0.5c-0.2,0.3-0.5,0.7-0.7,1
		c-0.2,0.4-0.5,0.7-0.8,1c-0.3,0.3-0.5,0.7-0.8,1c-0.3,0.3-0.6,0.6-0.9,0.9l-0.5,0.5L35,35.9c-0.3,0.3-0.7,0.6-1,0.8
		c-0.3,0.3-0.7,0.5-1.1,0.8c-0.7,0.5-1.5,0.9-2.3,1.4c-0.4,0.2-0.8,0.4-1.2,0.6c-0.4,0.2-0.8,0.4-1.2,0.5c-0.9,0.3-1.7,0.6-2.6,0.8
		c-0.4,0.1-0.9,0.2-1.3,0.3c-0.5,0.1-0.9,0.1-1.4,0.2l-0.7,0.1c-0.2,0-0.5,0-0.7,0l-1.4,0l-0.2,0c-0.3,0-0.1,0-0.2,0l0,0l-0.1,0
		l-0.3,0l-0.6-0.1l-0.6-0.1c-0.1,0-0.2,0-0.3,0l-0.4-0.1c-0.9-0.2-1.9-0.3-2.8-0.6c-0.4-0.1-0.9-0.2-1.3-0.4l-1.3-0.5
		c-0.4-0.2-0.8-0.4-1.2-0.6c-0.4-0.2-0.8-0.4-1.2-0.7c-0.8-0.5-1.5-1-2.2-1.6c-1.4-1.1-2.6-2.4-3.7-3.8c-2.1-2.8-3.4-6.1-3.8-9.3
		c-0.4-3.3-0.1-6.4,0.9-9.2c0.9-2.8,2.5-5.2,4.2-7C7,5.5,8.8,4.2,10.7,3.3C11.1,3,11.6,2.8,12,2.6c0.2-0.1,0.4-0.2,0.6-0.3
		c0.2-0.1,0.4-0.1,0.6-0.2c0.4-0.1,0.8-0.3,1.2-0.4c0.4-0.1,0.8-0.2,1.1-0.2c0.7-0.2,1.3-0.2,1.9-0.3c0.3,0,0.5-0.1,0.8-0.1
		c0.2,0,0.4,0,0.6,0c0.8,0,1.2,0,1.2,0s-0.4,0-1.2,0.1c-0.2,0-0.4,0-0.6,0.1c-0.2,0-0.5,0.1-0.8,0.1c-0.5,0.1-1.2,0.2-1.8,0.4
		C15.3,2,15,2.1,14.6,2.2c-0.4,0.1-0.7,0.3-1.1,0.5c-0.2,0.1-0.4,0.2-0.6,0.2c-0.2,0.1-0.4,0.2-0.6,0.3c-0.4,0.2-0.8,0.4-1.2,0.7
		c-1.7,1-3.3,2.4-4.8,4.3c-1.4,1.9-2.7,4.1-3.3,6.7c-0.6,2.5-0.7,5.4-0.1,8.2c0.6,2.8,2,5.4,3.9,7.6c1,1.1,2.1,2.1,3.3,2.9
		c0.6,0.4,1.2,0.8,1.9,1.1c0.3,0.2,0.7,0.3,1,0.4c0.3,0.1,0.7,0.3,1,0.4l1,0.3c0.3,0.1,0.7,0.2,1.1,0.2c0.7,0.2,1.4,0.2,2,0.3l0.2,0
		c0.1,0,0.2,0,0.3,0l0.6,0l0.6,0l0.3,0l0.1,0l0,0c0,0,0.1,0-0.1,0l0.1,0l1-0.1c0.2,0,0.3,0,0.5-0.1l0.5-0.1l1-0.2
		c0.3-0.1,0.7-0.2,1-0.3c0.7-0.2,1.3-0.5,1.9-0.7c0.3-0.1,0.6-0.3,0.9-0.5c0.3-0.2,0.6-0.3,0.9-0.5c0.5-0.4,1.1-0.7,1.6-1.1
		c0.2-0.2,0.5-0.4,0.7-0.6c0.2-0.2,0.4-0.5,0.7-0.7l0.3-0.3l0.3-0.4c0.2-0.2,0.4-0.5,0.6-0.7c0.2-0.2,0.3-0.5,0.5-0.8
		c0.2-0.3,0.4-0.5,0.5-0.8c0.1-0.3,0.3-0.5,0.4-0.8l0.2-0.4l0.2-0.4c0.2-0.5,0.5-1,0.6-1.6c0.1-0.3,0.2-0.5,0.2-0.8
		c0.1-0.3,0.1-0.5,0.2-0.8c0.1-0.3,0.1-0.5,0.2-0.8c0-0.2,0-0.5,0.1-0.7c0-0.2,0.1-0.4,0.1-0.7c0-0.3,0-0.6,0-0.9
		c0-2-0.4-3.8-0.9-5.2c-0.1-0.4-0.3-0.7-0.4-1c-0.1-0.2-0.1-0.3-0.2-0.5c-0.1-0.2-0.2-0.3-0.3-0.5c-0.2-0.3-0.3-0.6-0.5-0.8
		c-0.2-0.3-0.4-0.5-0.5-0.7c-0.3-0.5-0.6-0.8-0.9-1.1c-0.1-0.1-0.2-0.3-0.3-0.4c-0.2-0.2-0.3-0.3-0.5-0.4c-0.5-0.5-0.8-0.8-0.8-0.8
		c-1.7-1.6-1.7-4.3-0.1-6c1.6-1.7,4.3-1.7,6-0.1C35.9,3.3,36,3.3,36.1,3.4z"/>
</g>
</svg>
