<?xml version="1.0" encoding="utf-8"?>
<!-- Generator: Adobe Illustrator 22.1.0, SVG Export Plug-In . SVG Version: 6.00 Build 0)  -->
<svg version="1.1" id="Filled_Old_Icons" xmlns="http://www.w3.org/2000/svg" xmlns:xlink="http://www.w3.org/1999/xlink" x="0px"
	 y="0px" viewBox="0 0 42.5 42.5" style="enable-background:new 0 0 42.5 42.5;" xml:space="preserve">
<style type="text/css">
	.st0{fill:#202126;}
</style>
<path class="st0" d="M21.2,0.1c-9.4,0-16.6,7.6-16.6,17.6c0,12.6,15.5,24,16.2,24.5c0.1,0.1,0.3,0.1,0.6,0.1c0.3,0,0.4,0,0.6-0.1
	c0.7-0.4,16.2-11.9,16.2-24.5C37.9,7.7,30.7,0.1,21.2,0.1z M21.2,26.6c-5.4,0-9.7-4.3-9.7-9.7s4.3-9.7,9.7-9.7s9.7,4.3,9.7,9.7
	C30.9,22.2,26.6,26.6,21.2,26.6z"/>
</svg>
