<?xml version="1.0" encoding="utf-8"?>
<!-- Generator: Adobe Illustrator 22.1.0, SVG Export Plug-In . SVG Version: 6.00 Build 0)  -->
<svg version="1.1" id="Filled_Old_Icons" xmlns="http://www.w3.org/2000/svg" xmlns:xlink="http://www.w3.org/1999/xlink" x="0px"
	 y="0px" viewBox="0 0 42.5 42.5" style="enable-background:new 0 0 42.5 42.5;" xml:space="preserve">
<g>
	<g>
		<path d="M26.1,42.5H1c-0.5,0-1-0.4-1-1V1c0-0.5,0.4-1,1-1h25.1c0.5,0,1,0.4,1,1v7.7c0,0.5-0.4,1-1,1s-1-0.4-1-1V1.9H1.9v38.6h23.2
			v-4.8c0-0.5,0.4-1,1-1s1,0.4,1,1v5.8C27,42.1,26.6,42.5,26.1,42.5z"/>
	</g>
	<path d="M41.5,21.2H11l8-8c0.4-0.4,0.4-1,0-1.4c-0.4-0.4-1-0.4-1.4,0L8,21.5c-0.2,0.2-0.3,0.4-0.3,0.7c0,0,0,0,0,0
		c0,0.3,0.1,0.5,0.3,0.7l9.6,9.6c0.2,0.2,0.4,0.3,0.7,0.3c0.2,0,0.5-0.1,0.7-0.3c0.4-0.4,0.4-1,0-1.4l-8-8h30.5c0.5,0,1-0.4,1-1
		C42.5,21.7,42.1,21.2,41.5,21.2z"/>
</g>
</svg>
