<?xml version="1.0" encoding="utf-8"?>
<!-- Generator: Adobe Illustrator 22.1.0, SVG Export Plug-In . SVG Version: 6.00 Build 0)  -->
<svg version="1.1" id="Filled_Old_Icons" xmlns="http://www.w3.org/2000/svg" xmlns:xlink="http://www.w3.org/1999/xlink" x="0px"
	 y="0px" viewBox="0 0 42.5 42.5" style="enable-background:new 0 0 42.5 42.5;" xml:space="preserve">
<style type="text/css">
	.st0{fill:#202126;}
</style>
<g>
	<path class="st0" d="M10,8.6h30c1.4,0,2.5-1.2,2.5-2.5c0-1.4-1.2-2.5-2.5-2.5H10c-1.4,0-2.5,1.2-2.5,2.5C7.6,7.6,8.7,8.6,10,8.6z"
		/>
	<path class="st0" d="M40,13.7H17.6c-1.4,0-2.5,1.2-2.5,2.5c0,1.4,1.2,2.5,2.5,2.5H40c1.4,0,2.5-1.2,2.5-2.5
		C42.6,14.8,41.4,13.7,40,13.7z"/>
	<path class="st0" d="M39.9,23.8H2.5C1,23.8,0,24.9,0,26.2c0,1.4,1.2,2.5,2.5,2.5H40c1.4,0,2.5-1.2,2.5-2.5
		C42.5,24.8,41.3,23.8,39.9,23.8z"/>
	<path class="st0" d="M39.9,33.8H2.5C1,33.8,0,35,0,36.3c0,1.4,1.2,2.5,2.5,2.5H40c1.4,0,2.5-1.2,2.5-2.5
		C42.5,34.8,41.3,33.8,39.9,33.8z"/>
</g>
</svg>
