<?xml version="1.0" encoding="utf-8"?>
<!-- Generator: Adobe Illustrator 22.1.0, SVG Export Plug-In . SVG Version: 6.00 Build 0)  -->
<svg version="1.1" id="Filled_Old_Icons" xmlns="http://www.w3.org/2000/svg" xmlns:xlink="http://www.w3.org/1999/xlink" x="0px"
	 y="0px" viewBox="0 0 42.5 42.5" style="enable-background:new 0 0 42.5 42.5;" xml:space="preserve">
<style type="text/css">
	.st0{fill:#202126;}
</style>
<path class="st0" d="M31.9,16.5v-5.8C31.9,4.9,27.1,0,21.2,0S10.5,4.7,10.5,10.7v5.8c-3.1,1.1-5.3,4-5.3,7.4v10.7c0,4.5,3.6,8,8,8
	h15.9c4.5,0,8-3.6,8-8V23.9C37.3,20.5,35,17.5,31.9,16.5z M21.2,31.8c-1.9,0-3.5-1.6-3.5-3.5c0-2,1.6-3.5,3.5-3.5
	c2,0,3.5,1.6,3.5,3.5C24.8,30.4,23.2,31.8,21.2,31.8z M30.1,15.9h-0.9H13.2h-0.9v-5.3c0-4.9,3.9-8.9,8.9-8.9s8.9,3.9,8.9,8.9
	C30.1,10.7,30.1,15.9,30.1,15.9z"/>
</svg>
