<?xml version="1.0" encoding="utf-8"?>
<!-- Generator: Adobe Illustrator 22.1.0, SVG Export Plug-In . SVG Version: 6.00 Build 0)  -->
<svg version="1.1" id="Filled_Old_Icons" xmlns="http://www.w3.org/2000/svg" xmlns:xlink="http://www.w3.org/1999/xlink" x="0px"
	 y="0px" viewBox="0 0 42.5 42.5" style="enable-background:new 0 0 42.5 42.5;" xml:space="preserve">
<g>
	<g>
		<path d="M21.3,30.1c-0.5,0-0.9-0.4-0.9-0.9V15.1c0-0.5,0.4-0.9,0.9-0.9s0.9,0.4,0.9,0.9v14.1C22.2,29.7,21.8,30.1,21.3,30.1z"/>
	</g>
	<g>
		<path d="M41.6,42.5H0.9c-0.3,0-0.6-0.2-0.8-0.4c-0.2-0.3-0.2-0.6,0-0.9L20.4,0.5c0.3-0.6,1.3-0.6,1.7,0l20.3,40.7
			c0.1,0.3,0.1,0.6,0,0.9C42.2,42.3,41.9,42.5,41.6,42.5z M2.4,40.6h37.7L21.3,3L2.4,40.6z"/>
	</g>
	<g>
		<path d="M21.3,36.9c-1,0-1.8-0.8-1.8-1.8s0.8-1.8,1.8-1.8s1.8,0.8,1.8,1.8S22.3,36.9,21.3,36.9z M21.3,35.1
			C21.3,35.1,21.3,35.1,21.3,35.1l0.9,0L21.3,35.1z"/>
	</g>
</g>
</svg>
