<?xml version="1.0" encoding="utf-8"?>
<!-- Generator: Adobe Illustrator 22.1.0, SVG Export Plug-In . SVG Version: 6.00 Build 0)  -->
<svg version="1.1" id="Filled_Old_Icons" xmlns="http://www.w3.org/2000/svg" xmlns:xlink="http://www.w3.org/1999/xlink" x="0px"
	 y="0px" viewBox="0 0 42.5 42.5" style="enable-background:new 0 0 42.5 42.5;" xml:space="preserve">
<g>
	<g>
		<path d="M5.3,23.9v16.6c0,0.6,0.5,1.1,1.1,1.1h10.2c0.6,0,1.1-0.5,1.1-1.1V27.3c0-0.6,0.5-1.1,1.1-1.1h4.9c0.6,0,1.1,0.5,1.1,1.1
			v13.2c0,0.6,0.5,1.1,1.1,1.1h10.2c0.6,0,1.1-0.5,1.1-1.1V23.9c0-0.3-0.1-0.6-0.3-0.8L22,8.2c-0.4-0.4-1.1-0.4-1.6,0L5.6,23.1
			C5.4,23.3,5.3,23.6,5.3,23.9z"/>
		<path d="M42.3,21.6C42.2,21.6,42.2,21.6,42.3,21.6L21.9,1.2c-0.3-0.3-0.9-0.3-1.3,0L0.3,21.6c-0.3,0.3-0.4,0.8,0,1.2
			c0.4,0.4,0.9,0.3,1.3,0c0,0,0,0,0,0L21.3,3.1L41,22.8c0,0,0,0,0,0c0.3,0.3,0.9,0.3,1.2,0c0,0,0,0,0,0C42.6,22.5,42.6,22,42.3,21.6
			z"/>
	</g>
	<path d="M35.1,2.9c-0.2-0.1-0.4-0.2-0.6-0.2h-6.2c-0.5,0-0.9,0.4-0.9,0.9c0,0.2,0.1,0.4,0.1,0.5c0.1,0.1,0.1,0.2,0.2,0.2l6,6
		c0,0,0,0.1,0,0.1c0,0,0.1,0,0.1,0.1l0.1,0.1l0,0c0.1,0.1,0.3,0.2,0.5,0.2c0.1,0,0.2,0,0.3-0.1c0.3-0.1,0.6-0.4,0.6-0.8V8.8V3.6
		C35.4,3.3,35.3,3.1,35.1,2.9z"/>
</g>
</svg>
