<?xml version="1.0" encoding="utf-8"?>
<!-- Generator: Adobe Illustrator 22.1.0, SVG Export Plug-In . SVG Version: 6.00 Build 0)  -->
<svg version="1.1" id="Filled_Old_Icons" xmlns="http://www.w3.org/2000/svg" xmlns:xlink="http://www.w3.org/1999/xlink" x="0px"
	 y="0px" viewBox="0 0 42.5 42.5" style="enable-background:new 0 0 42.5 42.5;" xml:space="preserve">
<g>
	<g>
		<path d="M19.1,30.5c-0.1,0-0.3-0.1-0.4-0.2L7.8,19.5c-0.2-0.2-0.2-0.6,0-0.8c0.2-0.2,0.6-0.2,0.8,0l10.5,10.5L41.5,1.3
			C41.7,1,42.1,1,42.3,1.2c0.2,0.2,0.3,0.5,0.1,0.8L19.5,30.3C19.4,30.4,19.3,30.5,19.1,30.5C19.1,30.5,19.1,30.5,19.1,30.5z"/>
	</g>
	<g>
		<path d="M20.2,41.4C9.1,41.4,0,32.4,0,21.3S9.1,1.1,20.2,1.1c3.1,0,6.2,0.7,9,2.1c0.3,0.1,0.4,0.5,0.3,0.7
			c-0.1,0.3-0.5,0.4-0.7,0.3c-2.7-1.3-5.5-2-8.5-2C9.7,2.2,1.1,10.7,1.1,21.3s8.6,19.1,19.1,19.1c10.5,0,19.1-8.6,19.1-19.1
			c0-1.4-0.2-2.9-0.5-4.3c-0.1-0.3,0.1-0.6,0.4-0.7c0.3-0.1,0.6,0.1,0.7,0.4c0.3,1.5,0.5,3,0.5,4.5C40.4,32.4,31.3,41.4,20.2,41.4z"
			/>
	</g>
</g>
</svg>
