<?xml version="1.0" encoding="utf-8"?>
<!-- Generator: Adobe Illustrator 22.1.0, SVG Export Plug-In . SVG Version: 6.00 Build 0)  -->
<svg version="1.1" id="Filled_Old_Icons" xmlns="http://www.w3.org/2000/svg" xmlns:xlink="http://www.w3.org/1999/xlink" x="0px"
	 y="0px" viewBox="0 0 42.5 42.5" style="enable-background:new 0 0 42.5 42.5;" xml:space="preserve">
<style type="text/css">
	.st0{fill:#202126;}
</style>
<g>
	<path class="st0" d="M20.6,8.6v27.6c0,0.1-0.1,0.1-0.1,0.1L3.3,31.4c0,0-0.1,0-0.1-0.1V16.9c0,0,0-0.1,0.1-0.1l13.4,0.8
		c0,0,0.1,0,0.1-0.1l3.6-9C20.5,8.3,20.6,8.5,20.6,8.6z"/>
	<path class="st0" d="M38.4,7.3L22.2,6.3c-0.1,0-0.1,0.1-0.1,0.1l4,10.2c0,0,0,0.1,0.1,0.1l16.2-0.9c0.1,0,0.1-0.1,0.1-0.1L38.4,7.3
		L38.4,7.3z"/>
	<path class="st0" d="M22,8.5l3.6,9c0,0,0,0.1,0.1,0.1l13.4-0.8c0,0,0.1,0,0.1,0.1v14.2c0,0,0,0.1-0.1,0.1l-17.2,4.9
		c-0.1,0-0.1,0-0.1-0.1V8.6C21.8,8.5,22,8.3,22,8.5z"/>
	<path class="st0" d="M4.1,7.4l-4,8.2c0,0.1,0,0.1,0.1,0.1l16.2,0.9c0,0,0.1,0,0.1-0.1l4-10.2c0-0.1,0-0.1-0.1-0.1L4.1,7.4
		C4.1,7.3,4.1,7.3,4.1,7.4z"/>
</g>
</svg>
