<?xml version="1.0" encoding="utf-8"?>
<!-- Generator: Adobe Illustrator 22.1.0, SVG Export Plug-In . SVG Version: 6.00 Build 0)  -->
<svg version="1.1" id="Filled_Old_Icons" xmlns="http://www.w3.org/2000/svg" xmlns:xlink="http://www.w3.org/1999/xlink" x="0px"
	 y="0px" viewBox="0 0 42.5 42.5" style="enable-background:new 0 0 42.5 42.5;" xml:space="preserve">
<g>
	<path d="M7.1,35.4c-2.4,0-4.4-2-4.4-4.4V11.5c0-2.4,2-4.4,4.4-4.4h19.5L24,11c-0.3,0.4-0.2,1,0.2,1.2c0.2,0.1,0.3,0.1,0.5,0.1
		c0.3,0,0.6-0.1,0.7-0.4L29,6.7c0,0,0-0.1,0-0.1c0,0,0-0.1,0-0.1c0.1-0.2,0.1-0.4,0-0.6c0,0,0-0.1,0-0.1c0,0,0-0.1,0-0.1l-3.5-5.3
		c-0.3-0.4-0.8-0.5-1.2-0.2C23.9,0.5,23.8,1,24,1.4l2.6,3.9H7.1c-3.4,0-6.2,2.8-6.2,6.2V31c0,3.4,2.8,6.2,6.2,6.2
		c0.5,0,0.9-0.4,0.9-0.9C8,35.8,7.6,35.4,7.1,35.4z"/>
	<path d="M35.4,5.4c-0.5,0-0.9,0.4-0.9,0.9c0,0.5,0.4,0.9,0.9,0.9c2.4,0,4.4,2,4.4,4.4V31c0,2.4-2,4.4-4.4,4.4H14.1l2.6-3.9
		c0.3-0.4,0.2-1-0.2-1.2c-0.4-0.3-1-0.2-1.2,0.2l-3.5,5.3c0,0,0,0.1,0,0.1c0,0,0,0.1,0,0.1c-0.1,0.2-0.1,0.4,0,0.6c0,0,0,0.1,0,0.1
		c0,0,0,0.1,0,0.1l3.5,5.3c0.2,0.3,0.5,0.4,0.7,0.4c0.2,0,0.3,0,0.5-0.1c0.4-0.3,0.5-0.8,0.2-1.2l-2.6-3.9h21.3
		c3.4,0,6.2-2.8,6.2-6.2V11.5C41.6,8.1,38.8,5.4,35.4,5.4z"/>
</g>
</svg>
