<?xml version="1.0" encoding="utf-8"?>
<!-- Generator: Adobe Illustrator 22.1.0, SVG Export Plug-In . SVG Version: 6.00 Build 0)  -->
<svg version="1.1" id="Filled_Old_Icons" xmlns="http://www.w3.org/2000/svg" xmlns:xlink="http://www.w3.org/1999/xlink" x="0px"
	 y="0px" viewBox="0 0 42.5 42.5" style="enable-background:new 0 0 42.5 42.5;" xml:space="preserve">
<g>
	<path d="M15.5,18c1.6,0.4,3.1-1,2.7-2.7c-0.2-0.8-0.8-1.4-1.6-1.6c-1.6-0.4-3.1,1-2.7,2.7C14.1,17.2,14.7,17.8,15.5,18z"/>
	<path d="M42,16.4c0.3,0,0.5-0.2,0.5-0.5V7.7c0-0.3-0.2-0.5-0.5-0.5H0.5C0.2,7.2,0,7.4,0,7.7v8.1c0,0.3,0.3,0.5,0.6,0.5
		c1.3-0.1,2.6,0.2,3.4,1.2c3.3,4.1,0.4,8.6-3.5,8.6c-0.3,0-0.5,0.2-0.5,0.5v8.1c0,0.3,0.2,0.5,0.5,0.5H42c0.3,0,0.5-0.2,0.5-0.5
		v-8.1c0-0.3-0.3-0.5-0.6-0.5c-1.3,0.1-2.6-0.2-3.4-1.2C35.3,20.9,38.1,16.4,42,16.4z M12.9,15.2c0.2-1.3,1.3-2.3,2.5-2.5
		c2.3-0.4,4.2,1.5,3.8,3.8c-0.2,1.3-1.3,2.3-2.5,2.5C14.4,19.4,12.4,17.5,12.9,15.2z M26,27.3c-0.2,1.3-1.3,2.3-2.5,2.5
		c-2.3,0.4-4.2-1.5-3.8-3.8c0.2-1.3,1.3-2.3,2.5-2.5C24.5,23.1,26.4,25,26,27.3z M27,14.4L12.6,28.8c-0.1,0.1-0.2,0.2-0.4,0.2
		c-0.1,0-0.3-0.1-0.4-0.2c-0.2-0.2-0.2-0.5,0-0.7l14.4-14.4c0.2-0.2,0.5-0.2,0.7,0C27.2,13.9,27.2,14.2,27,14.4z M33.9,31.7
		c0,0.2-0.2,0.4-0.4,0.4h-1.1c-0.2,0-0.4-0.2-0.4-0.4v-1.1c0-0.2,0.2-0.4,0.4-0.4h1.1c0.2,0,0.4,0.2,0.4,0.4V31.7z M33.9,28.1
		c0,0.2-0.2,0.4-0.4,0.4h-1.1c-0.2,0-0.4-0.2-0.4-0.4V27c0-0.2,0.2-0.4,0.4-0.4h1.1c0.2,0,0.4,0.2,0.4,0.4V28.1z M33.9,24.5
		c0,0.2-0.2,0.4-0.4,0.4h-1.1c-0.2,0-0.4-0.2-0.4-0.4v-1.1c0-0.2,0.2-0.4,0.4-0.4h1.1c0.2,0,0.4,0.2,0.4,0.4V24.5z M33.9,19.1
		c0,0.2-0.2,0.4-0.4,0.4h-1.1c-0.2,0-0.4-0.2-0.4-0.4V18c0-0.2,0.2-0.4,0.4-0.4h1.1c0.2,0,0.4,0.2,0.4,0.4V19.1z M33.9,15.5
		c0,0.2-0.2,0.4-0.4,0.4h-1.1c-0.2,0-0.4-0.2-0.4-0.4v-1.1c0-0.2,0.2-0.4,0.4-0.4h1.1c0.2,0,0.4,0.2,0.4,0.4V15.5z M33.9,11.9
		c0,0.2-0.2,0.4-0.4,0.4h-1.1c-0.2,0-0.4-0.2-0.4-0.4v-1.1c0-0.2,0.2-0.4,0.4-0.4h1.1c0.2,0,0.4,0.2,0.4,0.4V11.9z"/>
	<path d="M23.4,24.5c-1.6-0.4-3.1,1-2.7,2.7c0.2,0.8,0.8,1.4,1.6,1.6c1.6,0.4,3.1-1,2.7-2.7C24.8,25.3,24.2,24.7,23.4,24.5z"/>
</g>
</svg>
