<?xml version="1.0" encoding="utf-8"?>
<!-- Generator: Adobe Illustrator 22.1.0, SVG Export Plug-In . SVG Version: 6.00 Build 0)  -->
<svg version="1.1" id="Filled_Old_Icons" xmlns="http://www.w3.org/2000/svg" xmlns:xlink="http://www.w3.org/1999/xlink" x="0px"
	 y="0px" viewBox="0 0 42.5 42.5" style="enable-background:new 0 0 42.5 42.5;" xml:space="preserve">
<style type="text/css">
	.st0{fill:none;}
	.st1{fill:#A2D025;}
</style>
<g>
	<path class="st0" d="M29.6,20.2c-0.1-0.3-0.4-0.5-0.7-0.4l-1.1,0.4c-0.3,0.1-0.5,0.4-0.4,0.7l1.1,3.3c0.1,0.3,0.4,0.5,0.7,0.4
		l1.1-0.4c0.3-0.1,0.5-0.4,0.4-0.7L29.6,20.2z"/>
	<path class="st0" d="M28.4,16.9l-1.1-3.3c-0.1-0.3-0.4-0.5-0.7-0.4l-1.1,0.4c-0.3,0.1-0.5,0.4-0.4,0.7l1.1,3.3
		c0.1,0.3,0.4,0.5,0.7,0.4l1.1-0.4C28.4,17.6,28.5,17.2,28.4,16.9z"/>
	<path class="st1" d="M21.7,23.4c-0.1-0.2-0.3-0.4-0.5-0.5c-0.2-0.1-0.3-0.2-0.5-0.2c-0.2,0-0.3,0-0.5,0.1c-0.2,0.1-0.3,0.1-0.5,0.3
		c-0.1,0.1-0.2,0.3-0.3,0.4c-0.1,0.2-0.1,0.4-0.1,0.6c0,0.2,0.1,0.5,0.2,0.8c0.1,0.3,0.2,0.6,0.4,0.8c0.1,0.2,0.3,0.3,0.4,0.4
		c0.2,0.1,0.3,0.1,0.5,0.2c0.2,0,0.3,0,0.5-0.1c0.2-0.1,0.3-0.1,0.5-0.2c0.1-0.1,0.2-0.2,0.3-0.4c0.1-0.2,0.1-0.4,0.1-0.6
		c0-0.2-0.1-0.5-0.2-0.8C22,23.8,21.8,23.6,21.7,23.4z"/>
	<path class="st1" d="M13.4,19.5c-0.1-0.2-0.3-0.4-0.4-0.5c-0.2-0.1-0.3-0.2-0.5-0.2c-0.2,0-0.3,0-0.5,0.1c-0.2,0.1-0.3,0.1-0.5,0.3
		c-0.1,0.1-0.2,0.3-0.3,0.4c-0.1,0.2-0.1,0.4-0.1,0.6c0,0.2,0.1,0.5,0.2,0.8c0.1,0.3,0.2,0.6,0.4,0.8c0.1,0.2,0.3,0.3,0.4,0.4
		c0.2,0.1,0.3,0.1,0.5,0.2c0.2,0,0.3,0,0.5-0.1c0.2-0.1,0.3-0.1,0.5-0.2c0.1-0.1,0.2-0.2,0.3-0.4c0.1-0.2,0.1-0.4,0.1-0.6
		c0-0.2-0.1-0.5-0.2-0.8C13.7,20,13.5,19.7,13.4,19.5z"/>
	<path class="st1" d="M42.4,25.1l-0.8-2.2l-0.8-2.2l-0.8-2.2c-1.8,0.6-3.8-0.3-4.5-2.2c-0.6-1.8,0.3-3.8,2.2-4.5L37,9.6l-0.8-2.2
		l-0.8-2.2c-0.4-1.2-1.7-1.9-3-1.5l-7.9,2.7l1.4,3.9c0.1,0.3-0.1,0.6-0.4,0.7l-1.1,0.4c-0.3,0.1-0.6-0.1-0.7-0.4l-1.4-3.8L1.6,14.4
		c-1.2,0.4-1.9,1.8-1.5,3l0.4,1.1l1.1,3.3L2.4,24c1.8-0.6,3.8,0.3,4.5,2.2C7.5,28,6.5,30,4.7,30.7l0.8,2.2L5.8,34L7,37.3
		c0.4,1.2,1.8,1.9,3,1.5l21.1-7.3l-1.3-3.8c-0.1-0.3,0.1-0.6,0.4-0.7l1.1-0.4c0.3-0.1,0.6,0.1,0.7,0.4l1.3,3.8l7.7-2.6
		C42.1,27.7,42.8,26.3,42.4,25.1z M12.3,23.7c-0.4,0-0.7-0.1-1-0.3c-0.3-0.2-0.6-0.4-0.8-0.7c-0.2-0.3-0.4-0.7-0.6-1.1
		c-0.1-0.4-0.2-0.9-0.2-1.3c0-0.4,0.1-0.8,0.2-1.1c0.1-0.3,0.4-0.6,0.6-0.8c0.3-0.2,0.6-0.4,1-0.5c0.4-0.1,0.7-0.2,1.1-0.1
		c0.4,0,0.7,0.1,1,0.3c0.3,0.2,0.6,0.4,0.8,0.7c0.2,0.3,0.4,0.7,0.6,1.1c0.1,0.4,0.2,0.8,0.2,1.2c0,0.4-0.1,0.7-0.3,1.1
		c-0.2,0.3-0.4,0.6-0.6,0.8c-0.3,0.2-0.6,0.4-0.9,0.5C13.1,23.7,12.7,23.7,12.3,23.7z M15,29.3c-0.1,0.1-0.2,0.1-0.3,0.2l-1.3,0.4
		l4.7-13.8c0-0.1,0.1-0.2,0.1-0.3c0.1-0.1,0.2-0.1,0.3-0.2l1.2-0.4l-4.7,13.8C15.1,29.2,15,29.3,15,29.3z M23.3,26
		c-0.2,0.3-0.4,0.6-0.6,0.8c-0.3,0.2-0.6,0.4-0.9,0.5c-0.4,0.1-0.7,0.2-1.1,0.1c-0.4,0-0.7-0.1-1-0.3c-0.3-0.2-0.6-0.4-0.8-0.7
		c-0.2-0.3-0.4-0.7-0.6-1.1C18.1,25,18,24.5,18,24.1c0-0.4,0.1-0.8,0.2-1.1c0.1-0.3,0.4-0.6,0.6-0.8c0.3-0.2,0.6-0.4,1-0.5
		c0.4-0.1,0.7-0.2,1.1-0.1c0.4,0,0.7,0.1,1,0.3c0.3,0.2,0.6,0.4,0.8,0.7c0.2,0.3,0.4,0.7,0.6,1.1c0.1,0.4,0.2,0.8,0.2,1.2
		C23.5,25.3,23.4,25.7,23.3,26z M26.2,17.7l-1.1-3.3c-0.1-0.3,0.1-0.6,0.4-0.7l1.1-0.4c0.3-0.1,0.6,0.1,0.7,0.4l1.1,3.3
		c0.1,0.3-0.1,0.6-0.4,0.7L27,18.1C26.6,18.2,26.3,18,26.2,17.7z M30.3,24.3l-1.1,0.4c-0.3,0.1-0.6-0.1-0.7-0.4L27.4,21
		c-0.1-0.3,0.1-0.6,0.4-0.7l1.1-0.4c0.3-0.1,0.6,0.1,0.7,0.4l1.1,3.3C30.8,23.9,30.6,24.2,30.3,24.3z"/>
</g>
</svg>
