<?xml version="1.0" encoding="utf-8"?>
<!-- Generator: Adobe Illustrator 22.1.0, SVG Export Plug-In . SVG Version: 6.00 Build 0)  -->
<svg version="1.1" id="Filled_Old_Icons" xmlns="http://www.w3.org/2000/svg" xmlns:xlink="http://www.w3.org/1999/xlink" x="0px"
	 y="0px" viewBox="0 0 42.5 42.5" style="enable-background:new 0 0 42.5 42.5;" xml:space="preserve">
<style type="text/css">
	.st0{fill:#202126;}
</style>
<g>
	<path class="st0" d="M0,30.5c0,2,1.7,3.7,3.7,3.7h35c2,0,3.7-1.7,3.7-3.7V16.6H0V30.5z M31.4,20.3h5.5c0.5,0,0.9,0.4,0.9,0.9
		s-0.4,0.9-0.9,0.9h-5.5c-0.5,0-0.9-0.4-0.9-0.9S30.9,20.3,31.4,20.3z M5.6,20.3h14.7c0.5,0,0.9,0.4,0.9,0.9s-0.4,0.9-0.9,0.9H5.6
		c-0.5,0-0.9-0.4-0.9-0.9S5.1,20.3,5.6,20.3z M5.6,24h5.5c0.5,0,0.9,0.4,0.9,0.9s-0.4,0.9-0.9,0.9H5.6c-0.5,0-0.9-0.4-0.9-0.9
		S5.1,24,5.6,24z M5.6,27.8h28.5c0.5,0,0.9,0.4,0.9,0.9s-0.4,0.9-0.9,0.9H5.6c-0.5,0-0.9-0.4-0.9-0.9S5.1,27.8,5.6,27.8z"/>
	<path class="st0" d="M42.5,12c0-2-1.7-3.7-3.7-3.7h-35C1.7,8.3,0,10,0,12v2.8h42.4V12z"/>
</g>
</svg>
