<?xml version="1.0" encoding="utf-8"?>
<!-- Generator: Adobe Illustrator 22.1.0, SVG Export Plug-In . SVG Version: 6.00 Build 0)  -->
<svg version="1.1" id="Filled_Old_Icons" xmlns="http://www.w3.org/2000/svg" xmlns:xlink="http://www.w3.org/1999/xlink" x="0px"
	 y="0px" viewBox="0 0 42.5 42.5" style="enable-background:new 0 0 42.5 42.5;" xml:space="preserve">
<g>
	<path d="M38.1,8H4.4C2,8,0,10,0,12.4v17.7c0,2.4,2,4.4,4.4,4.4h33.6c2.4,0,4.4-2,4.4-4.4V12.4C42.5,10,40.5,8,38.1,8z M4.4,9.7
		h33.6c1.5,0,2.7,1.2,2.7,2.7v2.7h-39v-2.7C1.8,10.9,3,9.7,4.4,9.7z M38.1,32.8H4.4c-1.5,0-2.7-1.2-2.7-2.7V16.8h39v13.3
		C40.7,31.6,39.5,32.8,38.1,32.8z"/>
	<g>
		<path d="M36.3,22.1H31c-0.5,0-0.9-0.4-0.9-0.9c0-0.5,0.4-0.9,0.9-0.9h5.3c0.5,0,0.9,0.4,0.9,0.9C37.2,21.7,36.8,22.1,36.3,22.1z"
			/>
	</g>
	<g>
		<path d="M20.4,22.1H6.2c-0.5,0-0.9-0.4-0.9-0.9c0-0.5,0.4-0.9,0.9-0.9h14.2c0.5,0,0.9,0.4,0.9,0.9C21.2,21.7,20.9,22.1,20.4,22.1z
			"/>
	</g>
	<g>
		<path d="M33.6,29.3H6.2c-0.5,0-0.9-0.4-0.9-0.9c0-0.5,0.4-0.9,0.9-0.9h27.4c0.5,0,0.9,0.4,0.9,0.9C34.5,28.9,34.1,29.3,33.6,29.3z
			"/>
	</g>
	<g>
		<path d="M11.5,25.7H6.2c-0.5,0-0.9-0.4-0.9-0.9s0.4-0.9,0.9-0.9h5.3c0.5,0,0.9,0.4,0.9,0.9S12,25.7,11.5,25.7z"/>
	</g>
</g>
</svg>
