<?xml version="1.0" encoding="utf-8"?>
<!-- Generator: Adobe Illustrator 22.1.0, SVG Export Plug-In . SVG Version: 6.00 Build 0)  -->
<svg version="1.1" id="Filled_Old_Icons" xmlns="http://www.w3.org/2000/svg" xmlns:xlink="http://www.w3.org/1999/xlink" x="0px"
	 y="0px" viewBox="0 0 42.5 42.5" style="enable-background:new 0 0 42.5 42.5;" xml:space="preserve">
<style type="text/css">
	.st0{fill:#202126;}
</style>
<g>
	<path class="st0" d="M42,8.6L21.9,24.9c-0.1,0.1-0.4,0.3-0.5,0.3c-0.1,0-0.4-0.1-0.5-0.3L0.5,8.6C0.1,9.2,0,9.9,0,10.5v21.3
		c0,2.2,1.8,3.8,3.8,3.8h34.8c2.2,0,3.8-1.8,3.8-3.8V10.7C42.5,9.9,42.4,9.2,42,8.6z"/>
	<path class="st0" d="M40.6,7.3C40,7,39.4,6.7,38.7,6.7H3.8c-0.7,0-1.4,0.1-1.9,0.5l19.3,15.6L40.6,7.3z"/>
</g>
</svg>
