<?xml version="1.0" encoding="utf-8"?>
<!-- Generator: Adobe Illustrator 22.1.0, SVG Export Plug-In . SVG Version: 6.00 Build 0)  -->
<svg version="1.1" id="Filled_Old_Icons" xmlns="http://www.w3.org/2000/svg" xmlns:xlink="http://www.w3.org/1999/xlink" x="0px"
	 y="0px" viewBox="0 0 42.5 42.5" style="enable-background:new 0 0 42.5 42.5;" xml:space="preserve">
<g>
	<g>
		<path d="M35.9,42.5H6.6c-0.5,0-0.9-0.4-0.9-0.9V4.9C5.6,4.4,6.1,4,6.6,4h29.4c0.5,0,0.9,0.4,0.9,0.9v36.7
			C36.9,42.1,36.4,42.5,35.9,42.5z M7.5,40.7H35V5.8H7.5V40.7z"/>
	</g>
	<g>
		<path d="M28.6,5.8H13.9c-0.5,0-0.9-0.4-0.9-0.9v-4C13,0.4,13.4,0,13.9,0h14.7c0.5,0,0.9,0.4,0.9,0.9v4C29.5,5.4,29.1,5.8,28.6,5.8
			z M14.8,4h12.9V1.8H14.8V4z"/>
	</g>
	<g>
		<path d="M35.9,42.5H6.6c-0.5,0-0.9-0.4-0.9-0.9v-4c0-0.5,0.4-0.9,0.9-0.9h29.4c0.5,0,0.9,0.4,0.9,0.9v4
			C36.9,42.1,36.4,42.5,35.9,42.5z M7.5,40.7H35v-2.1H7.5V40.7z"/>
	</g>
	<g>
		<path d="M40.5,5.8H2c-0.5,0-0.9-0.4-0.9-0.9S1.5,4,2,4h38.5c0.5,0,0.9,0.4,0.9,0.9S41,5.8,40.5,5.8z"/>
	</g>
	<g>
		<path d="M13.9,31.2c-0.5,0-0.9-0.4-0.9-0.9V11.9c0-0.5,0.4-0.9,0.9-0.9c0.5,0,0.9,0.4,0.9,0.9v18.4C14.8,30.8,14.4,31.2,13.9,31.2
			z"/>
	</g>
	<g>
		<path d="M21.3,31.2c-0.5,0-0.9-0.4-0.9-0.9V11.9c0-0.5,0.4-0.9,0.9-0.9s0.9,0.4,0.9,0.9v18.4C22.2,30.8,21.8,31.2,21.3,31.2z"/>
	</g>
	<g>
		<path d="M28.6,31.2c-0.5,0-0.9-0.4-0.9-0.9V11.9c0-0.5,0.4-0.9,0.9-0.9s0.9,0.4,0.9,0.9v18.4C29.5,30.8,29.1,31.2,28.6,31.2z"/>
	</g>
</g>
</svg>
