<?xml version="1.0" encoding="utf-8"?>
<!-- Generator: Adobe Illustrator 22.1.0, SVG Export Plug-In . SVG Version: 6.00 Build 0)  -->
<svg version="1.1" id="Filled_Old_Icons" xmlns="http://www.w3.org/2000/svg" xmlns:xlink="http://www.w3.org/1999/xlink" x="0px"
	 y="0px" viewBox="0 0 42.5 42.5" style="enable-background:new 0 0 42.5 42.5;" xml:space="preserve">
<style type="text/css">
	.st0{fill:#202126;}
</style>
<g>
	<path class="st0" d="M34.7,9.7v4.4c1,1,2,1.4,3,1.4c2.7,0,4.8-2.2,4.8-4.8v-1C42.5,9.7,34.7,9.7,34.7,9.7z"/>
	<path class="st0" d="M7.8,14V9.6H0v1c0,2.7,2.2,4.8,4.8,4.8C5.8,15.5,6.7,15,7.8,14z"/>
	<path class="st0" d="M32.9,14.2V9.6H21.3v5.7c1.2,1.4,3.9,2.1,5.8,2.1C29.2,17.4,31.5,16.1,32.9,14.2z"/>
	<path class="st0" d="M15.5,17.4c1.8,0,2.6-0.7,3.8-2.1V9.6H9.7v4.6C11,16.1,13.3,17.4,15.5,17.4z"/>
</g>
</svg>
