<?xml version="1.0" encoding="utf-8"?>
<!-- Generator: Adobe Illustrator 22.1.0, SVG Export Plug-In . SVG Version: 6.00 Build 0)  -->
<svg version="1.1" id="Filled_Old_Icons" xmlns="http://www.w3.org/2000/svg" xmlns:xlink="http://www.w3.org/1999/xlink" x="0px"
	 y="0px" viewBox="0 0 42.5 42.5" style="enable-background:new 0 0 42.5 42.5;" xml:space="preserve">
<g>
	<path d="M36.3,6.2C32.1,2.1,27.1,0,21.2,0c-5.9,0-10.9,2.1-15,6.2C2.1,10.4,0,15.4,0,21.2c0,5.9,2.1,10.9,6.2,15
		c4.2,4.2,9.2,6.2,15,6.2c5.9,0,10.9-2.1,15-6.2c4.2-4.2,6.2-9.2,6.2-15C42.5,15.4,40.4,10.4,36.3,6.2z M19.9,22.6H8.1v-2.7h11.8
		h2.7h11.8v2.7H22.6H19.9z"/>
</g>
</svg>
