<?xml version="1.0" encoding="utf-8"?>
<!-- Generator: Adobe Illustrator 22.1.0, SVG Export Plug-In . SVG Version: 6.00 Build 0)  -->
<svg version="1.1" id="Filled_Old_Icons" xmlns="http://www.w3.org/2000/svg" xmlns:xlink="http://www.w3.org/1999/xlink" x="0px"
	 y="0px" viewBox="0 0 42.5 42.5" style="enable-background:new 0 0 42.5 42.5;" xml:space="preserve">
<g>
	<path d="M42.5,9.7L42.5,9.7C42.5,9.7,42.5,9.7,42.5,9.7c0-0.2,0-0.3-0.1-0.4c0,0,0-0.1-0.1-0.1c-0.1-0.1-0.1-0.1-0.2-0.2
		c0,0,0,0-0.1-0.1c0,0,0,0-0.1,0c0,0,0,0-0.1-0.1L21.6,0.1c-0.2-0.1-0.5-0.1-0.7,0L0.5,8.9c0,0,0,0-0.1,0.1c0,0,0,0-0.1,0
		c0,0,0,0-0.1,0.1C0.3,9.1,0.2,9.2,0.2,9.3c0,0,0,0.1-0.1,0.1C0,9.5,0,9.6,0,9.7c0,0,0,0,0,0v0c0,0,0,0,0,0v23
		c0,0.4,0.2,0.7,0.5,0.8l21.2,8.9c0.1,0,0.2,0.1,0.3,0.1c0.1,0,0.2,0,0.4-0.1L42,33.6c0.3-0.1,0.5-0.5,0.5-0.8V9.7
		C42.5,9.7,42.5,9.7,42.5,9.7z M21.2,1.9l18.2,7.9l-7,3.2L14.9,4.6L21.2,1.9z M22.1,17.6l-19-7.9l9.6-4.2l17.6,8.4L22.1,17.6z
		 M1.8,11.1l19.5,8.1v21.1L1.8,32.2V11.1z M40.7,32.2L23,40.2V19.2l17.7-8.1V32.2z"/>
	<polygon points="6.2,26.6 16.8,31.9 16.8,23 6.2,17.7 	"/>
</g>
</svg>
