<?xml version="1.0" encoding="utf-8"?>
<!-- Generator: Adobe Illustrator 22.1.0, SVG Export Plug-In . SVG Version: 6.00 Build 0)  -->
<svg version="1.1" id="Filled_Old_Icons" xmlns="http://www.w3.org/2000/svg" xmlns:xlink="http://www.w3.org/1999/xlink" x="0px"
	 y="0px" viewBox="0 0 42.5 42.5" style="enable-background:new 0 0 42.5 42.5;" xml:space="preserve">
<g>
	<path d="M31.9,19l0-9.4C30.9,4,26.5,0,21.3,0c-5.1,0-9.6,4-10.6,9.7V19c-2.2,2.5-3.5,5.8-3.5,9.3c0,7.8,6.4,14.2,14.2,14.2
		s14.2-6.4,14.2-14.2C35.5,24.8,34.1,21.5,31.9,19z M21.3,1.8c4.3,0,8,3.4,8.9,8v7.6c-2.4-2-5.5-3.1-8.9-3.1c-3.4,0-6.4,1.2-8.9,3.1
		l0-7.4C13.3,5.2,17,1.8,21.3,1.8z M21.3,40.7c-6.8,0-12.4-5.6-12.4-12.4c0-6.8,5.6-12.4,12.4-12.4c6.8,0,12.4,5.6,12.4,12.4
		C33.7,35.2,28.1,40.7,21.3,40.7z"/>
	<path d="M21.3,26.6c-1,0-1.8,0.8-1.8,1.8c0,0.7,0.4,1.2,0.9,1.5v4.7c0,0.5,0.4,0.9,0.9,0.9c0.5,0,0.9-0.4,0.9-0.9v-4.7
		c0.5-0.3,0.9-0.9,0.9-1.5C23.1,27.4,22.3,26.6,21.3,26.6z"/>
</g>
</svg>
