<?xml version="1.0" encoding="utf-8"?>
<!-- Generator: Adobe Illustrator 22.1.0, SVG Export Plug-In . SVG Version: 6.00 Build 0)  -->
<svg version="1.1" id="Filled_Old_Icons" xmlns="http://www.w3.org/2000/svg" xmlns:xlink="http://www.w3.org/1999/xlink" x="0px"
	 y="0px" viewBox="0 0 42.5 42.5" style="enable-background:new 0 0 42.5 42.5;" xml:space="preserve">
<g>
	<path d="M6.2,6.2c4.2-4.2,9.2-6.2,15-6.2c5.9,0,10.9,2.1,15,6.2c4.2,4.2,6.2,9.2,6.2,15c0,5.9-2.1,10.9-6.2,15
		c-4.2,4.2-9.2,6.2-15,6.2c-5.9,0-10.9-2.1-15-6.2C2.1,32.1,0,27.1,0,21.2C0,15.4,2.1,10.4,6.2,6.2z M7.5,35
		c3.8,3.8,8.4,5.7,13.8,5.7c5.4,0,10-1.9,13.8-5.7c3.8-3.8,5.7-8.4,5.7-13.8c0-5.4-1.9-10-5.7-13.8c-3.8-3.8-8.4-5.7-13.8-5.7
		c-5.4,0-10,1.9-13.8,5.7c-3.8,3.8-5.7,8.4-5.7,13.8C1.7,26.6,3.6,31.2,7.5,35z"/>
</g>
<g>
	<rect x="19.9" y="8.1" width="2.7" height="26.3"/>
	<rect x="19.9" y="8.1" transform="matrix(6.123234e-17 -1 1 6.123234e-17 -9.094947e-13 42.5)" width="2.7" height="26.3"/>
</g>
</svg>
