<?xml version="1.0" encoding="utf-8"?>
<!-- Generator: Adobe Illustrator 22.1.0, SVG Export Plug-In . SVG Version: 6.00 Build 0)  -->
<svg version="1.1" id="Filled_Old_Icons" xmlns="http://www.w3.org/2000/svg" xmlns:xlink="http://www.w3.org/1999/xlink" x="0px"
	 y="0px" viewBox="0 0 42.5 42.5" style="enable-background:new 0 0 42.5 42.5;" xml:space="preserve">
<style type="text/css">
	.st0{fill:#202126;}
</style>
<g>
	<g>
		<path class="st0" d="M41.8,38.9l-10.1-9.7c2.5-3.1,3.9-7,3.9-11.1c0-9.8-8-17.8-17.8-17.8S0,8.3,0,18.1s8,17.8,17.8,17.8
			c4.3,0,8-1.5,11.1-3.9L39,41.7c0.4,0.4,0.9,0.5,1.3,0.5c0.5,0,1.1-0.1,1.5-0.5C42.8,40.9,42.6,39.7,41.8,38.9z M27.2,28.4
			c-2.5,2.3-5.8,3.6-9.4,3.6c-7.6,0-13.9-6.3-13.9-13.9S10.2,4.3,17.8,4.3s13.8,6.2,13.8,13.8c0,3.6-1.3,7-3.6,9.4"/>
		<path class="st0" d="M17.8,6.6c-0.5,0-0.9,0.4-0.9,0.9c0,0.5,0.4,0.9,0.9,0.9c5.2,0,9.5,4.3,9.5,9.5c0,0.5,0.4,0.9,0.9,0.9
			c0.5,0,0.9-0.4,0.9-0.9C29.5,11.8,24.3,6.6,17.8,6.6z"/>
	</g>
</g>
</svg>
