<?xml version="1.0" encoding="utf-8"?>
<!-- Generator: Adobe Illustrator 22.1.0, SVG Export Plug-In . SVG Version: 6.00 Build 0)  -->
<svg version="1.1" id="Filled_Old_Icons" xmlns="http://www.w3.org/2000/svg" xmlns:xlink="http://www.w3.org/1999/xlink" x="0px"
	 y="0px" viewBox="0 0 42.5 42.5" style="enable-background:new 0 0 42.5 42.5;" xml:space="preserve">
<g>
	<path d="M18.6,0H0.9C0.4,0,0,0.4,0,0.9v17.7c0,0.5,0.4,0.9,0.9,0.9h17.7c0.5,0,0.9-0.4,0.9-0.9V0.9C19.5,0.4,19.1,0,18.6,0z"/>
	<path d="M41.6,0H23.9C23.4,0,23,0.4,23,0.9v17.7c0,0.5,0.4,0.9,0.9,0.9h17.7c0.5,0,0.9-0.4,0.9-0.9V0.9C42.5,0.4,42.1,0,41.6,0z"/>
	<path d="M18.6,23H0.9C0.4,23,0,23.4,0,23.9v17.7c0,0.5,0.4,0.9,0.9,0.9h17.7c0.5,0,0.9-0.4,0.9-0.9V23.9C19.5,23.4,19.1,23,18.6,23
		z"/>
	<path d="M41.6,23H23.9c-0.5,0-0.9,0.4-0.9,0.9v17.7c0,0.5,0.4,0.9,0.9,0.9h17.7c0.5,0,0.9-0.4,0.9-0.9V23.9
		C42.5,23.4,42.1,23,41.6,23z"/>
</g>
</svg>
