<?xml version="1.0" encoding="utf-8"?>
<!-- Generator: Adobe Illustrator 22.1.0, SVG Export Plug-In . SVG Version: 6.00 Build 0)  -->
<svg version="1.1" id="Filled_Old_Icons" xmlns="http://www.w3.org/2000/svg" xmlns:xlink="http://www.w3.org/1999/xlink" x="0px"
	 y="0px" viewBox="0 0 42.5 42.5" style="enable-background:new 0 0 42.5 42.5;" xml:space="preserve">
<style type="text/css">
	.st0{fill:#202126;}
</style>
<path class="st0" d="M22.8,1.9l5.3,10.6c0.3,0.5,0.7,0.8,1.2,0.9l11.8,1.7c1.3,0.1,1.9,1.9,0.9,2.8l-8.5,8.4
	c-0.4,0.4-0.5,0.9-0.5,1.5l2,11.7c0.3,1.3-1.2,2.4-2.4,1.7l-10.5-5.6c-0.5-0.3-1.1-0.3-1.6,0L10,41.3c-1.2,0.7-2.7-0.4-2.4-1.7
	l2-11.7c0.1-0.5-0.1-1.1-0.5-1.5L0.6,18c-0.9-0.9-0.4-2.7,0.9-2.8l11.8-1.7c0.5-0.1,1.1-0.4,1.2-0.9l5.3-10.6
	C20.4,0.7,22.1,0.7,22.8,1.9z"/>
</svg>
