<?xml version="1.0" encoding="utf-8"?>
<!-- Generator: Adobe Illustrator 22.1.0, SVG Export Plug-In . SVG Version: 6.00 Build 0)  -->
<svg version="1.1" id="Filled_Old_Icons" xmlns="http://www.w3.org/2000/svg" xmlns:xlink="http://www.w3.org/1999/xlink" x="0px"
	 y="0px" viewBox="0 0 42.5 42.5" style="enable-background:new 0 0 42.5 42.5;" xml:space="preserve">
<g>
	<g>
		<path d="M1.5,42.5h40.2c0.4,0,0.7-0.3,0.7-0.7c0,0,0-0.1,0-0.1c0,0,0-0.1,0-0.1L33.2,0.6c0,0,0,0,0-0.1c0,0,0-0.1,0-0.1
			c0,0,0,0,0-0.1c0,0,0,0-0.1-0.1c0,0,0-0.1-0.1-0.1c0,0,0,0-0.1,0c0,0-0.1,0-0.1,0c0,0-0.1,0-0.1,0c0,0,0,0-0.1,0c0,0,0,0,0,0
			c0,0-0.1,0-0.1,0c0,0,0,0-0.1,0c0,0,0,0-0.1,0c0,0,0,0-0.1,0c0,0-0.1,0-0.1,0H9.8C9.2,0,8.6,0.3,8.2,0.8L5.4,4.4
			C4.9,5,4.8,5.9,5.2,6.6s1.1,1.2,1.9,1.2H9L0.2,40.7c-0.1,0.4,0,0.9,0.2,1.2S1.1,42.5,1.5,42.5z M31.8,36.4l-8.2,4.1l8.2-33.8V36.4
			z M25.6,41.1l6.9-3.5l6.4,3.5H25.6z M33.2,36.4V7.1l7.5,33.3L33.2,36.4z M6.4,6C6.3,5.7,6.3,5.4,6.5,5.2l2.8-3.5
			c0.1-0.2,0.3-0.3,0.6-0.3l21,0l-3.7,4.7c-0.1,0.2-0.3,0.3-0.6,0.3H7.1C6.8,6.4,6.5,6.2,6.4,6z M10.5,7.8h16.1
			c0.7,0,1.3-0.3,1.7-0.8l2.9-3.7L22,41.1H1.5L10.5,7.8z"/>
		<path d="M23.3,26.9l1.4-5.7c0.2-0.6,0-1.3-0.4-1.8c-0.4-0.5-1-0.8-1.7-0.8H11.4c-1,0-1.8,0.7-2.1,1.6l-1.4,5.7
			c-0.2,0.6,0,1.3,0.4,1.8c0.4,0.5,1,0.8,1.7,0.8h11.3C22.2,28.5,23.1,27.9,23.3,26.9z"/>
	</g>
</g>
</svg>
