<?xml version="1.0" encoding="utf-8"?>
<!-- Generator: Adobe Illustrator 22.1.0, SVG Export Plug-In . SVG Version: 6.00 Build 0)  -->
<svg version="1.1" id="Filled_Old_Icons" xmlns="http://www.w3.org/2000/svg" xmlns:xlink="http://www.w3.org/1999/xlink" x="0px"
	 y="0px" viewBox="0 0 42.5 42.5" style="enable-background:new 0 0 42.5 42.5;" xml:space="preserve">
<g>
	<path d="M41.5,5.4H0.9C0.4,5.4,0,5.8,0,6.3v30c0,0.5,0.4,0.9,0.9,0.9H8c0.5,0,0.9-0.4,0.9-0.9v-2.6c0-1.2,1-2.2,2.2-2.2
		c1.2,0,2.2,1,2.2,2.2v2.6c0,0.5,0.4,0.9,0.9,0.9h14.1c0.5,0,0.9-0.4,0.9-0.9v-2.6c0-1.2,1-2.2,2.2-2.2c1.2,0,2.2,1,2.2,2.2v2.6
		c0,0.5,0.4,0.9,0.9,0.9h7.1c0.5,0,0.9-0.4,0.8-0.9v-30C42.4,5.8,42,5.4,41.5,5.4z M23,12.4h7.1c0.5,0,0.9,0.4,0.9,0.9
		s-0.4,0.9-0.9,0.9H23c-0.5,0-0.9-0.4-0.9-0.9S22.5,12.4,23,12.4z M21.2,25.6c0,0.6-0.3,1-0.8,1H4.5c-0.5,0-0.9-0.4-0.9-0.9v-3.5
		c0-0.2,0.1-0.5,0.3-0.6c0.1-0.2,2.5-2.6,5.9-3v-0.5c-0.7-0.5-1.8-1.7-1.8-4c0-1.8,0-4.4,4.4-4.4c4.4,0,4.4,2.7,4.4,4.4
		c0,2.3-1.1,3.5-1.8,4v0.5c3.4,0.4,5.8,2.8,5.9,2.9c0.2,0.2,0.3,0.4,0.3,0.6V25.6z M37.2,24.8H23c-0.5,0-0.9-0.4-0.9-0.9
		S22.5,23,23,23h14.1c0.5,0,0.9,0.4,0.9,0.9S37.6,24.8,37.2,24.8z M37.2,21.2H23c-0.5,0-0.9-0.4-0.9-0.9s0.4-0.9,0.9-0.9h14.1
		c0.5,0,0.9,0.4,0.9,0.9S37.6,21.2,37.2,21.2z M37.2,17.7H23c-0.5,0-0.9-0.4-0.9-0.9s0.4-0.9,0.9-0.9h14.1c0.5,0,0.9,0.4,0.9,0.9
		S37.6,17.7,37.2,17.7z"/>
	<path d="M13.2,19.4v-1.8c0-0.3,0.2-0.6,0.5-0.8c0,0,1.3-0.7,1.3-2.7c0-1.8,0-2.7-2.6-2.7c-2.6,0-2.7,0.9-2.7,2.7
		c0,2,1.2,2.7,1.3,2.7c0.3,0.2,0.5,0.5,0.5,0.8v1.8c0,0.5-0.4,0.9-0.9,0.9c-2.5,0-4.6,1.6-5.3,2.2v2.3h14.1v-2.3
		c-0.7-0.6-2.8-2.2-5.3-2.2C13.6,20.3,13.2,19.9,13.2,19.4z"/>
</g>
</svg>
