<?xml version="1.0" encoding="utf-8"?>
<!-- Generator: Adobe Illustrator 22.1.0, SVG Export Plug-In . SVG Version: 6.00 Build 0)  -->
<svg version="1.1" id="Filled_Old_Icons" xmlns="http://www.w3.org/2000/svg" xmlns:xlink="http://www.w3.org/1999/xlink" x="0px"
	 y="0px" viewBox="0 0 42.5 42.5" style="enable-background:new 0 0 42.5 42.5;" xml:space="preserve">
<g>
	<g>
		<path d="M41.6,37.2h-7.1c-0.5,0-0.9-0.4-0.9-0.9v-2.6c0-1.2-1-2.2-2.2-2.2s-2.2,1-2.2,2.2v2.6c0,0.5-0.4,0.9-0.9,0.9H14.2
			c-0.5,0-0.9-0.4-0.9-0.9v-2.6c0-1.2-1-2.2-2.2-2.2s-2.2,1-2.2,2.2v2.6c0,0.5-0.4,0.9-0.9,0.9H0.9c-0.5,0-0.9-0.4-0.9-0.9v-30
			c0-0.5,0.4-0.9,0.9-0.9h40.6c0.5,0,0.9,0.4,0.9,0.9v30C42.5,36.8,42.1,37.2,41.6,37.2z M35.4,35.4h5.3V7.1H1.8v28.3h5.3v-1.8
			c0-2.2,1.8-4,4-4s4,1.8,4,4v1.8h12.4v-1.8c0-2.2,1.8-4,4-4s4,1.8,4,4V35.4z"/>
	</g>
	<g>
		<path d="M37.2,24.8H23c-0.5,0-0.9-0.4-0.9-0.9S22.5,23,23,23h14.1c0.5,0,0.9,0.4,0.9,0.9S37.6,24.8,37.2,24.8z"/>
	</g>
	<g>
		<path d="M37.2,21.2H23c-0.5,0-0.9-0.4-0.9-0.9s0.4-0.9,0.9-0.9h14.1c0.5,0,0.9,0.4,0.9,0.9S37.6,21.2,37.2,21.2z"/>
	</g>
	<g>
		<path d="M37.2,17.7H23c-0.5,0-0.9-0.4-0.9-0.9c0-0.5,0.4-0.9,0.9-0.9h14.1c0.5,0,0.9,0.4,0.9,0.9C38,17.3,37.6,17.7,37.2,17.7z"/>
	</g>
	<g>
		<path d="M30.1,14.2H23c-0.5,0-0.9-0.4-0.9-0.9c0-0.5,0.4-0.9,0.9-0.9h7.1c0.5,0,0.9,0.4,0.9,0.9C31,13.8,30.6,14.2,30.1,14.2z"/>
	</g>
	<g>
		<path d="M20.4,26.6H4.5c-0.5,0-0.9-0.4-0.9-0.9v-3.5c0-0.2,0.1-0.5,0.3-0.6C4,21.4,6.4,19,9.8,18.6v-0.5c-0.7-0.5-1.8-1.7-1.8-4
			c0-1.8,0-4.4,4.4-4.4s4.4,2.7,4.4,4.4c0,2.3-1.1,3.5-1.8,4v0.5c3.4,0.4,5.8,2.8,5.9,2.9c0.2,0.2,0.3,0.4,0.3,0.6v3.5
			C21.2,26.2,20.9,26.6,20.4,26.6z M5.3,24.8h14.1v-2.3c-0.7-0.6-2.8-2.2-5.3-2.2c-0.5,0-0.9-0.4-0.9-0.9v-1.8
			c0-0.3,0.2-0.6,0.5-0.8c0,0,1.3-0.7,1.3-2.7c0-1.8,0-2.7-2.6-2.7s-2.7,0.9-2.7,2.7c0,2,1.2,2.7,1.3,2.7c0.3,0.2,0.5,0.5,0.5,0.8
			v1.8c0,0.5-0.4,0.9-0.9,0.9c-2.5,0-4.6,1.6-5.3,2.2V24.8z"/>
	</g>
</g>
</svg>
