<?xml version="1.0" encoding="utf-8"?>
<!-- Generator: Adobe Illustrator 22.1.0, SVG Export Plug-In . SVG Version: 6.00 Build 0)  -->
<svg version="1.1" id="Filled_Old_Icons" xmlns="http://www.w3.org/2000/svg" xmlns:xlink="http://www.w3.org/1999/xlink" x="0px"
	 y="0px" viewBox="0 0 42.5 42.5" style="enable-background:new 0 0 42.5 42.5;" xml:space="preserve">
<style type="text/css">
	.st0{fill:#202126;}
</style>
<g>
	<path class="st0" d="M23.3,21.2L42,2.6c0.5-0.5,0.5-1.5,0-2.2c-0.5-0.5-1.5-0.5-2.2,0L21.2,19.1L2.5,0.5C2,0,1.1,0,0.5,0.5
		S0,2,0.5,2.6l18.6,18.6L0.5,39.9c-0.5,0.5-0.5,1.5,0,2.2c0.5,0.5,1.5,0.5,2.2,0l18.6-18.6L39.9,42c0.5,0.5,1.5,0.5,2.2,0
		c0.5-0.5,0.5-1.5,0-2.2L23.3,21.2z"/>
</g>
</svg>
