<svg id="Layer_1" data-name="Layer 1" xmlns="http://www.w3.org/2000/svg" viewBox="0 0 300 180.95"><defs><style>.cls-1{fill:#ffcb00;}.cls-2{fill:#175ea4;}.cls-3{fill:#e51c3c;}.cls-4{fill:#6ab42d;}.cls-5{fill:#714f9b;}</style></defs><title>MultiMarketLogo</title><path class="cls-1" d="M74.45,94C71.05,81,57.38,71.9,44.63,74.09a25.94,25.94,0,0,0-12,5.44A26,26,0,0,0,25.13,90.3c-4.48,12.14,2,27.23,14.09,33l45.13,21.3a2,2,0,0,0,2.8-2.32ZM62.31,105.1A15.29,15.29,0,0,1,42,112.39a15.29,15.29,0,0,1-7.29-20.33,15.28,15.28,0,0,1,27.63,13Z" transform="translate(0.37 -59.53)"/><path class="cls-2" d="M123.45,101.34c7.93-11.17,6.6-26.27-3.1-35.12a25.14,25.14,0,0,0-26.52-4.85C81.63,66.22,75,79.87,78.5,93.12l12.58,48.16a2,2,0,0,0,1.57,1.46,2,2,0,0,0,2-.81Zm-34-24.2a15.29,15.29,0,1,1,7.29,20.34A15.29,15.29,0,0,1,89.44,77.14Z" transform="translate(0.37 -59.53)"/><path class="cls-3" d="M82.72,148.25,37.65,127.07a27.84,27.84,0,0,0-11.88-2.67A25.35,25.35,0,0,0,3.56,163.3h0c6.93,11.15,21.53,15.22,34,9.47L82.7,151.86a2,2,0,0,0,0-3.61Zm-44.57,8.16a15.27,15.27,0,1,1-27.62-13,15.28,15.28,0,0,1,20.33-7.29A15.3,15.3,0,0,1,38.15,156.41Z" transform="translate(0.37 -59.53)"/><path class="cls-4" d="M84.7,155.45,39.35,176.58c-11.41,5.31-18.12,19.65-14.66,31.3A24.94,24.94,0,0,0,46.21,226c12.1,1.37,25-7.7,28.3-19.85l13-48.33a2,2,0,0,0-2.77-2.32ZM63.2,207.11a15.31,15.31,0,0,1-13.84,8.75,15.09,15.09,0,0,1-6.5-1.47,15.27,15.27,0,1,1,20.34-7.28Z" transform="translate(0.37 -59.53)"/><path class="cls-5" d="M78.42,207.35c-3.07,11.54,1.76,23.66,11.75,29.47A25.22,25.22,0,0,0,123.08,231c7.36-8.89,7.71-21.93.84-31.71L95,158a1.93,1.93,0,0,0-1.63-.85,2.41,2.41,0,0,0-.36,0,2,2,0,0,0-1.58,1.46Zm31.36-6a15.27,15.27,0,1,1-13,27.62,15.28,15.28,0,0,1-7.29-20.33A15.3,15.3,0,0,1,109.78,201.37Z" transform="translate(0.37 -59.53)"/><path class="cls-1" d="M130.64,143.44V112H134l11.5,28.77L156.93,112h3.33v31.42h-2.12v-29l-11.71,29h-2l-11.71-29v29Z" transform="translate(0.37 -59.53)"/><path class="cls-1" d="M168.67,141.06a10.08,10.08,0,0,1-3.45-7.69V112h2.12v21.35a8.22,8.22,0,0,0,2.86,6.31,9.74,9.74,0,0,0,6.84,2.6,9.27,9.27,0,0,0,6.57-2.6,8.42,8.42,0,0,0,2.7-6.31V112h2.12v21.35a10.21,10.21,0,0,1-3.34,7.69,11.24,11.24,0,0,1-8.05,3.18A12,12,0,0,1,168.67,141.06Z" transform="translate(0.37 -59.53)"/><path class="cls-1" d="M193.39,112h2.12v29.41h16.91v2h-19Z" transform="translate(0.37 -59.53)"/><path class="cls-1" d="M223.6,143.44V114.09H212.84V112h23.74v2.07H225.72v29.35Z" transform="translate(0.37 -59.53)"/><path class="cls-1" d="M240.18,143.44V112h2.12v31.42Z" transform="translate(0.37 -59.53)"/><path class="cls-2" d="M130.64,188.69V157.26H134L145.48,186l11.44-28.78h3.34v31.43h-2.12v-29l-11.71,29h-2l-11.71-29v29Z" transform="translate(0.37 -59.53)"/><path class="cls-2" d="M164.13,188.69l12.45-31.43h2.65l12.3,31.43h-2.44l-4-10.07H170.54l-4,10.07Zm20.14-12.09-6.47-16.9-6.62,16.9Z" transform="translate(0.37 -59.53)"/><path class="cls-2" d="M195.34,188.69V157.26h15a7.3,7.3,0,0,1,5.51,2.44,8.11,8.11,0,0,1,2.28,5.83,9.79,9.79,0,0,1-1.38,5.25,5.31,5.31,0,0,1-3.55,2.59q2,.54,3.18,3.34a17,17,0,0,1,1.22,6.78c0,1.49,0,2.6.1,3.34a4.51,4.51,0,0,0,.43,1.86H216a4.37,4.37,0,0,1-.69-2.34l-.16-4.5a9.5,9.5,0,0,0-1.54-5.46,4.33,4.33,0,0,0-3.65-2.22H197.46v14.52ZM210,172.21a5.71,5.71,0,0,0,4.29-1.91,6.43,6.43,0,0,0,1.75-4.56,6.57,6.57,0,0,0-1.75-4.56,5.79,5.79,0,0,0-4.29-1.85H197.46v12.88Z" transform="translate(0.37 -59.53)"/><path class="cls-2" d="M223.69,188.69V157.26h2.12v17.33l18.33-17.33h2.71l-13.52,13.09,14.1,18.34h-2.6l-13.09-16.91-5.93,5.41v11.5Z" transform="translate(0.37 -59.53)"/><path class="cls-2" d="M251.14,188.69V157.26h20.5v2.07H253.26v12.08h16.8v2h-16.8v13.3h18.38v2Z" transform="translate(0.37 -59.53)"/><path class="cls-2" d="M286.65,188.69V159.33H275.89v-2.07h23.74v2.07H288.77v29.36Z" transform="translate(0.37 -59.53)"/></svg>