<svg id="Layer_1" data-name="Layer 1" xmlns="http://www.w3.org/2000/svg" viewBox="0 0 214.22 300"><defs><style>.cls-1{fill:#ffcb00;}.cls-2{fill:#175ea4;}.cls-3{fill:#e51c3c;}.cls-4{fill:#6ab42d;}.cls-5{fill:#714f9b;}</style></defs><title>MultiMarketLogo_2</title><path class="cls-1" d="M166.93,57.08c-5.64-21.48-28.3-36.56-49.44-32.94a43.27,43.27,0,0,0-19.88,9A43.09,43.09,0,0,0,85.17,51c-7.43,20.13,3.26,45.15,23.34,54.62L183.35,141a3.32,3.32,0,0,0,4.63-3.85ZM146.8,75.56a25.32,25.32,0,1,1-12.09-33.71A25.35,25.35,0,0,1,146.8,75.56Z" transform="translate(-42.89)"/><path class="cls-2" d="M248.17,69.32C261.32,50.8,259.1,25.77,243,11.1A40.29,40.29,0,0,0,215,0a43.46,43.46,0,0,0-16,3.06c-20.22,8-31.15,30.66-25.41,52.64l20.86,79.84a3.27,3.27,0,0,0,2.61,2.43,3.31,3.31,0,0,0,3.31-1.35ZM191.79,29.21a25.35,25.35,0,1,1,12.08,33.71A25.34,25.34,0,0,1,191.79,29.21Z" transform="translate(-42.89)"/><path class="cls-3" d="M180.63,147.09,105.92,112a46.19,46.19,0,0,0-19.7-4.43A42,42,0,0,0,49.4,172.05h0c11.49,18.48,35.69,25.23,56.3,15.69l74.91-34.66a3.31,3.31,0,0,0,0-6Zm-73.89,13.53a25.32,25.32,0,1,1-12.08-33.71A25.33,25.33,0,0,1,106.74,160.62Z" transform="translate(-42.89)"/><path class="cls-4" d="M183.93,159l-75.2,35c-18.91,8.82-30,32.58-24.3,51.9a41.35,41.35,0,0,0,35.68,30c20.06,2.27,41.5-12.77,46.91-32.92l21.49-80.12a3.3,3.3,0,0,0-4.58-3.85Zm-35.66,85.65a25.37,25.37,0,0,1-22.94,14.51,25.32,25.32,0,1,1,22.94-14.51Z" transform="translate(-42.89)"/><path class="cls-5" d="M173.52,245.08c-5.1,19.14,2.91,39.23,19.47,48.85a41.82,41.82,0,0,0,54.56-9.72c12.21-14.75,12.78-36.37,1.39-52.57l-48-68.34a3.19,3.19,0,0,0-2.7-1.41,3.57,3.57,0,0,0-.59.05,3.29,3.29,0,0,0-2.63,2.41Zm52-9.91a25.33,25.33,0,1,1-33.71,12.09A25.36,25.36,0,0,1,225.5,235.17Z" transform="translate(-42.89)"/></svg>